Coordinates
version=1
nRows=16
nColumns=40
inDegrees=yes

Units are S.I. units (second, meters, Newtons, ...)
Angles are in degrees.

endheader
time	pelvis_tilt	pelvis_list	pelvis_rotation	pelvis_tx	pelvis_ty	pelvis_tz	hip_flexion_r	hip_adduction_r	hip_rotation_r	knee_angle_r	knee_angle_r_beta	ankle_angle_r	subtalar_angle_r	mtp_angle_r	hip_flexion_l	hip_adduction_l	hip_rotation_l	knee_angle_l	knee_angle_l_beta	ankle_angle_l	subtalar_angle_l	mtp_angle_l	lumbar_extension	lumbar_bending	lumbar_rotation	arm_flex_r	arm_add_r	arm_rot_r	elbow_flex_r	pro_sup_r	wrist_flex_r	wrist_dev_r	arm_flex_l	arm_add_l	arm_rot_l	elbow_flex_l	pro_sup_l	wrist_flex_l	wrist_dev_l
     16.87000000	     -6.70886503	     -3.36190617	      2.17327307	      1.02584210	      0.90438039	      0.40373433	      6.97705405	     -8.86109923	     -7.54236689	     40.28801248	     40.28801248	      8.37018106	     -7.38720155	    -23.04270584	     25.19728076	      1.08252551	      0.75658090	     36.62295764	     36.62295764	     22.05825676	    -18.76279752	     14.18027425	     -9.69496516	      6.10809710	      5.72230143	     31.37468335	    -12.97192149	    -23.71864258	     24.06074359	     46.20424539	      0.00000000	      0.00000000	     13.07118522	    -12.46328682	     23.69368149	     32.42367549	     44.60723836	      0.00000000	      0.00000000
     16.89307143	     -6.63032687	     -3.36569363	      1.71020710	      1.02502228	      0.90423093	      0.40213693	      9.95279034	     -9.05703186	     -5.94881265	     45.48758802	     45.48758802	      6.24320841	     -9.81701935	    -22.25688152	     24.77650531	      1.03843143	      0.36280342	     36.59820387	     36.59820387	     22.36651843	    -18.76491491	     13.96926796	     -9.79907556	      6.31467139	      4.93228067	     27.51668144	    -12.49416235	    -23.84917371	     22.86430051	     46.25501721	      0.00000000	      0.00000000	     15.16747843	    -12.90452602	     23.25771311	     33.72639085	     44.70480356	      0.00000000	      0.00000000
     16.91614286	     -6.51411844	     -3.25357696	      1.20828925	      1.02415785	      0.90420331	      0.40058829	     12.79264452	     -9.27749133	     -4.45143301	     50.25928228	     50.25928228	      4.18094243	    -11.57627140	    -21.09711859	     24.21952461	      1.10484068	     -0.09965856	     36.43005161	     36.43005161	     22.67369994	    -18.74568579	     13.81186836	     -9.97579729	      6.39492347	      4.04857364	     23.62846605	    -12.01435347	    -23.94479027	     21.63766062	     46.29327984	      0.00000000	      0.00000000	     17.36710151	    -13.52905071	     22.79585529	     34.95093083	     44.79987538	      0.00000000	      0.00000000
     16.93921429	     -6.37369494	     -3.37740408	      0.67120327	      1.02324247	      0.90450826	      0.39946800	     15.55660517	     -8.95185230	     -2.92444444	     54.75005269	     54.75005269	      4.36383065	    -11.75076189	    -13.66959310	     23.62450567	      0.87994897	     -0.54288583	     36.23267087	     36.23267087	     22.81235934	    -18.73866487	     13.24253158	    -10.33117087	      6.70615187	      3.87935322	     18.49115970	    -11.92553690	    -23.42064851	     22.44866678	     46.26333723	      0.00000000	      0.00000000	     19.56583832	    -14.13623328	     22.01882651	     37.63300526	     45.00596496	      0.00000000	      0.00000000
     16.96228571	     -6.26755406	     -3.40577270	      0.12333048	      1.02220487	      0.90512330	      0.39854181	     18.11990186	     -8.67941447	     -1.65961998	     58.32134641	     58.32134641	      4.40655237	    -11.95888144	     -7.99858207	     22.97237701	      0.75804638	     -1.01480829	     35.84374692	     35.84374692	     22.92833355	    -18.70402804	     12.88747599	    -10.62133987	      6.91235001	      3.47553246	     14.11611053	    -11.86739860	    -22.58155155	     22.00375990	     46.25927080	      0.00000000	      0.00000000	     22.01767174	    -14.75235030	     21.31123083	     39.23327395	     45.18656492	      0.00000000	      0.00000000
     16.98535714	     -6.21858017	     -3.38339896	     -0.48841924	      1.02108574	      0.90614176	      0.39802551	     20.40143424	     -8.37425131	     -0.57149604	     60.64746970	     60.64746970	      3.34489169	    -12.94009715	     -7.02928349	     22.27230529	      0.67164454	     -1.50911903	     35.24459466	     35.24459466	     23.04770850	    -18.67151269	     12.89645447	    -10.82570276	      7.02637686	      2.85110371	     10.48814044	    -11.66355196	    -22.54993397	     20.62938783	     46.29653042	      0.00000000	      0.00000000	     24.36353025	    -15.50386301	     20.71541585	     40.42225446	     45.29075975	      0.00000000	      0.00000000
     17.00842857	     -6.15048104	     -3.56042061	     -1.14064876	      1.01995416	      0.90768625	      0.39805615	     22.57782991	     -7.79808398	      0.22990288	     62.39821562	     62.39821562	      4.76533471	    -12.54394829	     -0.84296708	     21.43630634	      0.29686965	     -2.12911427	     34.41088654	     34.41088654	     22.73419978	    -18.61574119	     12.03583063	    -11.18607705	      7.36926978	      2.73085722	      6.05623476	    -11.65584748	    -21.41539369	     21.27177159	     46.22946927	      0.00000000	      0.00000000	     26.41891055	    -16.16380254	     19.01242462	     42.89469515	     45.56483080	      0.00000000	      0.00000000
     17.03150000	     -6.18815504	     -3.60638306	     -1.83989999	      1.01867151	      0.90956247	      0.39853563	     24.50152892	     -7.34121571	      0.82976315	     62.77278476	     62.77278476	      4.65955712	    -13.18009902	     -0.69807846	     20.63784077	      0.07283983	     -2.72206702	     33.42581554	     33.42581554	     22.67818347	    -18.50722604	     12.20685869	    -11.32794279	      7.48382183	      2.19268467	      2.90574495	    -11.46160562	    -21.35657272	     20.06131811	     46.25867470	      0.00000000	      0.00000000	     28.65840836	    -17.11926707	     18.33115442	     43.98002479	     45.66807020	      0.00000000	      0.00000000
     17.05457143	     -6.23994400	     -3.78094267	     -2.68980381	      1.01731890	      0.91182041	      0.39964062	     26.22454434	     -6.69132617	      1.27092156	     62.13064692	     62.13064692	      4.97930095	    -13.56150300	     -0.72677466	     19.74524266	     -0.34572378	     -3.41287339	     32.24979914	     32.24979914	     22.46004538	    -18.43745551	     12.17213623	    -11.57399453	      7.71344448	      2.36430134	     -0.36010113	    -11.45445402	    -21.21370459	     19.17699356	     46.27205027	      0.00000000	      0.00000000	     30.83506441	    -17.75804215	     17.30132587	     45.79687866	     45.81190250	      0.00000000	      0.00000000
     17.07764286	     -6.47742089	     -3.97378183	     -3.52136585	      1.01586773	      0.91402872	      0.40121508	     27.87739836	     -6.07358635	      1.37258932	     60.48812993	     60.48812993	      5.72839479	    -13.55968074	     -1.02719155	     19.03376530	     -0.81893224	     -4.14310183	     31.03390260	     31.03390260	     22.23224093	    -18.22541743	     12.24401298	    -11.53041737	      7.94044785	      1.92459686	     -3.01710279	    -11.31086053	    -21.19166283	     18.52677909	     46.28181283	      0.00000000	      0.00000000	     32.78639394	    -18.88096066	     16.42668995	     46.94495966	     45.92468495	      0.00000000	      0.00000000
     17.10071429	     -6.54215211	     -4.05495031	     -4.54080539	      1.01456682	      0.91667320	      0.40334127	     29.02176163	     -5.48415233	      1.52127209	     57.72142441	     57.72142441	      6.35867782	    -13.43372540	     -2.25620290	     17.90896638	     -1.19215990	     -5.07831989	     29.42811955	     29.42811955	     21.68964473	    -18.14185000	     11.88094031	    -11.83856485	      7.93613461	      2.58931970	     -6.13758450	    -11.16633633	    -20.98899406	     18.46747207	     46.25144240	      0.00000000	      0.00000000	     34.64975086	    -19.17453241	     14.64405470	     49.75537758	     46.14203334	      0.00000000	      0.00000000
     17.12378571	     -6.80333557	     -4.14260686	     -5.56840998	      1.01314362	      0.91886157	      0.40582464	     29.99091384	     -4.97717474	      1.28680391	     53.84736240	     53.84736240	      6.34398915	    -12.99451972	     -5.71561789	     17.04897946	     -1.61650678	     -6.09909160	     27.90976158	     27.90976158	     20.84023688	    -18.01364894	     10.57517105	    -11.95550418	      7.98139810	      2.63719372	     -9.11013380	    -10.91489311	    -20.39738862	     20.06592884	     46.12140819	      0.00000000	      0.00000000	     35.70700676	    -19.80497273	     11.18224656	     53.34891084	     46.50733495	      0.00000000	      0.00000000
     17.14685714	     -7.38770598	     -4.41379823	     -6.54446909	      1.01166902	      0.92051943	      0.40890463	     30.92465410	     -4.12264963	      0.88617387	     49.23032630	     49.23032630	      7.08507306	    -11.83636957	     -6.12802973	     16.63107338	     -2.27889788	     -6.95536887	     26.62998612	     26.62998612	     20.61171665	    -17.70266580	     10.65019264	    -11.49901983	      8.21341276	      2.35559653	    -10.87244121	    -10.76249770	    -20.27064796	     19.82905102	     46.10966857	      0.00000000	      0.00000000	     37.29041182	    -20.96808574	     10.23272694	     54.22456399	     46.61009421	      0.00000000	      0.00000000
     17.16992857	     -7.60038406	     -4.44009983	     -7.57508715	      1.01062855	      0.92227365	      0.41204482	     30.83439544	     -3.63529354	      0.28453105	     43.24434344	     43.24434344	      5.56534149	    -10.71251190	    -12.45996870	     15.66241975	     -2.62840630	     -8.05007240	     25.07908494	     25.07908494	     19.53356882	    -17.67361147	      8.66469619	    -11.60609470	      8.13696440	      1.91169994	    -14.08806023	    -11.56979260	    -10.15199545	     23.96310709	     45.44714311	      0.00000000	      0.00000000	     37.48079594	    -21.52868999	      4.90468392	     58.43401647	     47.13080148	      0.00000000	      0.00000000
     17.19300000	     -7.89685649	     -4.44282770	     -8.54311080	      1.00971993	      0.92343228	      0.41552781	     30.68372524	     -3.11940248	     -0.51829053	     37.37094205	     37.37094205	      6.06109577	     -7.08620269	    -11.62060230	     14.95272811	     -2.94849026	     -8.96792285	     23.90460509	     23.90460509	     19.21920292	    -17.51105307	      8.34952358	    -11.50626098	      8.05756552	      2.16338807	    -15.70786924	    -11.32024372	    -10.15771142	     24.43437967	     45.45942386	      0.00000000	      0.00000000	     38.87770512	    -22.10753852	      3.30034273	     60.43376724	     47.29413705	      0.00000000	      0.00000000
     17.21607143	     -8.13561642	     -4.40480827	     -9.42280833	      1.00919313	      0.92413116	      0.41930656	     30.09092949	     -2.48328627	     -1.16031002	     31.18629638	     31.18629638	      5.94975933	     -3.42166459	    -10.32161975	     14.25765107	     -3.22193852	     -9.85596933	     22.93134028	     22.93134028	     19.15297136	    -17.24766031	      8.23003095	    -11.38831559	      7.93987620	      2.38667296	    -16.87873799	    -11.01760499	    -10.11129226	     24.52694604	     45.45382259	      0.00000000	      0.00000000	     40.39807828	    -22.73706195	      2.40647717	     61.80755358	     47.39132664	      0.00000000	      0.00000000
